<svg width="24" height="30" viewBox="0 0 24 30" fill="none" xmlns="http://www.w3.org/2000/svg">
<path fill-rule="evenodd" clip-rule="evenodd" d="M11.588 21.9333C6.38404 21.7539 2.26466 17.3587 2.41386 12.0912C2.56307 6.82365 6.92314 2.72077 12.1271 2.90016C17.331 3.07954 21.4504 7.47472 21.3012 12.7423C21.152 18.0098 16.7919 22.1127 11.588 21.9333ZM10.2619 23.8184C4.5588 22.9847 0.247157 17.9498 0.415051 12.0223C0.595195 5.66231 5.8642 0.683116 12.1837 0.900958C18.5032 1.1188 23.4802 6.45118 23.3 12.8112C23.1268 18.9253 18.2507 23.7633 12.2594 23.9347L12.1098 29.2179L10.111 29.149L10.2619 23.8184Z" fill="black"/>
</svg>
